<?xml version="1.0" standalone="no"?>
<!DOCTYPE svg PUBLIC "-//W3C//DTD SVG 20010904//EN"
 "http://www.w3.org/TR/2001/REC-SVG-20010904/DTD/svg10.dtd">
<svg version="1.0" xmlns="http://www.w3.org/2000/svg"
 width="320.000000pt" height="320.000000pt" viewBox="0 0 320.000000 320.000000"
 preserveAspectRatio="xMidYMid meet">
<metadata>
Created by potrace 1.14, written by Peter Selinger 2001-2017
</metadata>
<g transform="translate(0.000000,320.000000) scale(0.100000,-0.100000)"
fill="#000000" stroke="none">
<path d="M1126 2444 c-12 -11 -16 -36 -16 -95 l0 -79 -174 0 c-136 0 -176 -3
-185 -14 -8 -9 -11 -47 -9 -107 l3 -94 183 -3 182 -2 -2 -263 -3 -262 -30 -1
c-16 -1 -56 -2 -87 -3 l-58 -1 -2 -182 -3 -183 -85 -3 c-52 -2 -87 -8 -92 -15
-4 -7 -8 -94 -8 -194 0 -170 1 -183 19 -193 29 -15 186 -13 200 3 6 8 12 80
13 188 l3 174 85 3 c52 2 87 8 92 15 4 7 8 89 8 184 l0 172 88 3 87 3 5 275 5
275 218 3 218 2 -3 108 -3 107 -215 5 -215 5 -3 85 c-2 52 -8 87 -15 92 -7 4
-51 8 -99 8 -66 0 -90 -4 -102 -16z"/>
<path d="M1882 2448 c-8 -8 -12 -66 -12 -194 0 -222 -4 -214 115 -214 119 0
115 -7 115 210 0 149 -3 181 -16 194 -19 20 -183 23 -202 4z"/>
<path d="M2251 2446 c-8 -9 -11 -72 -9 -202 l3 -189 105 0 105 0 3 194 c2 149
-1 196 -10 203 -23 14 -184 10 -197 -6z"/>
<path d="M1692 1888 c-18 -18 -16 -197 2 -204 7 -3 132 -6 277 -7 l264 -2 5
-90 5 -90 110 0 110 0 0 105 0 105 -90 5 -90 5 -3 85 c-2 52 -8 87 -15 92 -21
13 -561 10 -575 -4z"/>
<path d="M1503 1323 c-4 -10 -6 -101 -3 -203 l5 -185 88 -3 87 -3 0 -82 c0
-51 5 -88 12 -95 17 -17 749 -17 766 0 17 17 16 192 -1 207 -9 7 -128 12 -373
13 l-359 3 -2 169 c-1 92 -4 175 -7 182 -4 11 -29 14 -105 14 -86 0 -101 -3
-108 -17z"/>
</g>
</svg>
